<svg id="Inhalt" xmlns="http://www.w3.org/2000/svg" viewBox="0 0 80 80"><defs><style>.cls-1{fill:none;stroke:#fff;stroke-linecap:round;stroke-linejoin:round;stroke-width:2px;}.cls-2{fill:#fff;}</style></defs><title>icons_warning_active</title><polygon class="cls-1" points="65.28 61.49 14.72 61.49 40.09 18.51 65.28 61.49"/><path class="cls-2" d="M40,54.54a2.45,2.45,0,0,1-2.46-2.42,2.44,2.44,0,1,1,4.88,0A2.46,2.46,0,0,1,40,54.54ZM41.42,46c-.06.55-.17.52-.61.52H39.16c-.43,0-.55,0-.61-.52l-.64-11.27c0-.49,0-.53,0-.7a.48.48,0,0,1,.52-.5H41.5a.54.54,0,0,1,.58.52c0,.17,0,.13,0,.62Z"/></svg>