<?xml version="1.0" encoding="utf-8"?>
<!-- Generator: Adobe Illustrator 16.0.4, SVG Export Plug-In . SVG Version: 6.00 Build 0)  -->
<!DOCTYPE svg PUBLIC "-//W3C//DTD SVG 1.1//EN" "http://www.w3.org/Graphics/SVG/1.1/DTD/svg11.dtd">
<svg version="1.1" id="Ebene_1" xmlns="http://www.w3.org/2000/svg" xmlns:xlink="http://www.w3.org/1999/xlink" x="0px" y="0px"
	 width="107px" height="80px" viewBox="0 0 107 80" enable-background="new 0 0 107 80" xml:space="preserve">
<linearGradient id="SVGID_1_" gradientUnits="userSpaceOnUse" x1="39.9326" y1="11.4141" x2="100.1255" y2="83.1492">
	<stop  offset="0.5" style="stop-color:#EFF1F3"/>
	<stop  offset="0.9998" style="stop-color:#AEB9C2"/>
</linearGradient>
<path fill="url(#SVGID_1_)" d="M102.882,13.042c2.265,0,4.118-1.853,4.118-4.117V4.116C107,1.853,105.146,0,102.882,0H76.364v20.65
	H30.802c-2.265,0-4.117,1.853-4.117,4.117v17.95H4.118C1.854,42.718,0,44.569,0,46.835v4.214c0,2.265,1.854,4.117,4.118,4.117
	h22.566v20.718c0,2.264,1.853,4.116,4.117,4.116h71.586c2.265,0,4.118-1.853,4.118-4.116V24.768c0-2.265-1.854-4.117-4.118-4.117
	H90.2v-7.608H102.882z"/>
</svg>
